<mxfile host="Electron" modified="2023-05-23T15:29:35.457Z" agent="5.0 (Windows NT 10.0; Win64; x64) AppleWebKit/537.36 (KHTML, like Gecko) draw.io/19.0.2 Chrome/102.0.5005.63 Electron/19.0.3 Safari/537.36" etag="IkSin6kTimAhgPc_nmvv" compressed="false" version="19.0.2" type="device">
  <diagram id="jtEWjEJLr_3nwjV8xUw6" name="Seite-1">
    <mxGraphModel dx="1896" dy="1303" grid="1" gridSize="10" guides="1" tooltips="1" connect="1" arrows="1" fold="1" page="1" pageScale="1" pageWidth="1169" pageHeight="827" math="0" shadow="0">
      <root>
        <object tooltip="" id="0">
          <ag_global_attributes>
            <ag_global_attribute name="Resources" value="" iconName="hammer" min="0" max="5" />
            <ag_global_attribute name="Knowledge" value="" iconName="lightbulb" min="0" max="5" />
            <ag_global_attribute name="Location" value="" iconName="map_pin_ellipse" min="0" max="1" />
            <ag_global_attribute name="Impact" value="" iconName="flame" min="0" max="5" />
          </ag_global_attributes>
          <ag_attributes />
          <ag_computed_attributes />
          <ag_aggregation_functions>
            <ag_aggregation_function name="default" id="6b1d22791hih8" default="activity_w;link" fn="function (collection) { &#xa;    var result = null; &#xa;    if (collection.childAttributes.length == 1) { &#xa;        result = collection.childAttributes[0].attributes;&#xa;        result._marking = collection.childAttributes[0].id;&#xa;    } else { &#xa;        var candidates = []; &#xa;        var worstValue = 0; &#xa;        collection.childAttributes.forEach(function(child) { &#xa;            var value = parseInt(child.computedAttribute); &#xa;            if (value &gt; worstValue) { &#xa;                worstValue = value; &#xa;                candidates = []; &#xa;                candidates.push(child); &#xa;            } else if (value == worstValue) { &#xa;                candidates.push(child); &#xa;            } &#xa;        }); &#xa;        var tiebreaker = function(candidates, name, max) { &#xa;            var min_value = max; &#xa;            candidates.forEach(function(node) { &#xa;                min_value = Math.min(min_value, node.attributes[name]); &#xa;            }); &#xa;            result = []; &#xa;            candidates.forEach(function(node) { &#xa;                if (node.attributes[name] == min_value) { &#xa;                    result.push(node); &#xa;                } &#xa;            }); &#xa;            return result; &#xa;        }; &#xa;        if (candidates.length &gt; 1) { &#xa;            candidates = tiebreaker(candidates, &quot;Resources&quot;, collection.globalAttributes[&quot;Resources&quot;].max); &#xa;            if (candidates.length &gt; 1) { &#xa;                candidates = tiebreaker(candidates, &quot;Knowledge&quot;, collection.globalAttributes[&quot;Knowledge&quot;].max); &#xa;            } &#xa;        } &#xa;        result = candidates[0].attributes;&#xa;        result._marking = candidates[0].id;&#xa;    } &#xa;    return result; &#xa;}" />
            <ag_aggregation_function name="AND" id="gf0d4f199018" default="and" fn="function (collection) { &#xa;    var result = {}; &#xa;    var ids = [];&#xa;    collection.childAttributes.forEach(function(child) { &#xa;    for (var attribute in child.attributes) { &#xa;            if (attribute in result) { &#xa;                result[attribute] += parseInt(child.attributes[attribute]); &#xa;            } else { &#xa;                result[attribute] = parseInt(child.attributes[attribute]); &#xa;            } &#xa;        }&#xa;        ids.push(child.id);&#xa;    }); &#xa;    for (var attribute in result) { &#xa;        if (attribute in collection.globalAttributes) { &#xa;            result[attribute] = Math.min(collection.globalAttributes[attribute].max, result[attribute]); &#xa;        } &#xa;    }&#xa;    result._marking = ids.join(&quot;;&quot;);&#xa;    return result; &#xa;}" />
            <ag_aggregation_function name="Security Control" id="73f575i0ghij5" default="activity_g;activity_y" fn="function (collection) { &#xa;    var result = {}; &#xa;    for (var attribute in collection.localAttributes) { &#xa;        result[attribute] = parseInt(collection.localAttributes[attribute]); &#xa;    } &#xa;    collection.childAttributes.forEach(function(child) { &#xa;        for (var attribute in child.attributes) { &#xa;            if (attribute in collection.globalAttributes) { &#xa;                if (attribute in result) { &#xa;                    result[attribute] += parseInt(child.attributes[attribute]); &#xa;                } &#xa;            } &#xa;        } &#xa;    }); &#xa;    for (var attribute in result) { &#xa;        if (attribute in collection.globalAttributes) { &#xa;            result[attribute] = Math.min(collection.globalAttributes[attribute].max, result[attribute]); &#xa;        } &#xa;    } &#xa;    return result; &#xa;}" />
            <ag_aggregation_function name="Risk" id="egf49jfgj408" default="consequence" fn="function (collection) {  &#xa;    var maxRisk = &quot;L&quot;; &#xa;    var matrix = [ &#xa;        [&quot;L&quot;, &quot;L&quot;, &quot;L&quot;, &quot;L&quot;, &quot;L&quot;], &#xa;        [&quot;L&quot;, &quot;L&quot;, &quot;M&quot;, &quot;M&quot;, &quot;M&quot;], &#xa;        [&quot;L&quot;, &quot;M&quot;, &quot;M&quot;, &quot;S&quot;, &quot;S&quot;], &#xa;        [&quot;L&quot;, &quot;M&quot;, &quot;S&quot;, &quot;V&quot;, &quot;V&quot;], &#xa;        [&quot;L&quot;, &quot;M&quot;, &quot;S&quot;, &quot;V&quot;, &quot;V&quot;], &#xa;    ];&#xa;    var updatedImpacts = [];&#xa;    var ids = [];&#xa; &#xa;    var compareRisk = function(risk1, risk2) { &#xa;        /*&#xa;        * Returns:&#xa;        *  - Null: if one of the parameters is not a character representing a risk&#xa;        *  - Negativ integer: if risk1 &lt; risk2&#xa;        *  - Zero: if risks are equal&#xa;        *  - Positive integer: if risk1 &gt; risk2&#xa;        */&#xa;        var values = [&quot;L&quot;, &quot;M&quot;, &quot;S&quot;, &quot;V&quot;]; &#xa;        var index_risk1 = values.indexOf(risk1); &#xa;        var index_risk2 = values.indexOf(risk2); &#xa; &#xa;        if (index_risk1 == -1 || index_risk2 == -1) { &#xa;            return null; &#xa;        } &#xa;        return index_risk1 - index_risk2; &#xa; &#xa;    } &#xa;     &#xa;    collection.childAttributes.forEach(function(child) {  &#xa;        var impact = 1;  &#xa;        if (child.edgeWeight !== null) {  &#xa;            impact = parseInt(child.edgeWeight);  &#xa;        }&#xa;        var _impact = parseInt(child.attributes._impact) || 0;&#xa;        impact = Math.max(impact - _impact, 1);&#xa;        updatedImpacts.push(child.id + &#39;:&#39; + impact);&#xa;        var af = parseInt(child.computedAttribute) || parseInt(child.attributes._af);&#xa;        risk = matrix[af - 1][impact - 1];&#xa;        result = compareRisk(risk, maxRisk);&#xa;        if (result &gt; 0) { &#xa;            maxRisk = risk;&#xa;            ids = [child.id];&#xa;        } else if (result == 0){&#xa;            ids.push(child.id);&#xa;        }&#xa;    });  &#xa;  &#xa;    var result = {&#39;_risk&#39;: maxRisk, &quot;_marking&quot;: ids.join(&quot;;&quot;)};&#xa;    if (updatedImpacts.length &gt; 0) {&#xa;        result._weight = updatedImpacts.join(&#39;;&#39;);&#xa;    }&#xa;    return result;&#xa;}" />
            <ag_aggregation_function name="Impact" id="397423adceb0f" default="" fn="function(collection) {&#xa;    var impact = 0;&#xa;    var result = {}&#xa;    &#xa;    collection.childAttributes.forEach(function(child) {&#xa;        if (&quot;Impact&quot; in child.attributes) {&#xa;            impact += parseInt(child.attributes[&quot;Impact&quot;]);&#xa;        } else if (&quot;Resources&quot; in child.attributes &amp;&amp; &quot;Knowledge&quot; in child.attributes &amp;&amp; &quot;Location&quot; in child.attributes) {&#xa;            result._af = child.computedAttribute&#xa;            result._marking = child.id;&#xa;        }&#xa;    });&#xa;    result._impact = Math.min(impact, collection.globalAttributes[&quot;Impact&quot;].max);&#xa;    &#xa;    return result;&#xa;}" />
          </ag_aggregation_functions>
          <ag_computed_attributes_functions>
            <ag_computed_attributes_function name="default" id="dbg60ff69g9a" default="activity_w;activity_g;activity_y" fn="function (collection) { &#xa;    var colorMatrix = {&#xa;        5: {&quot;fillColor&quot;: &quot;#cc0000&quot;, &quot;fontColor&quot;: &quot;#ffffff&quot;},&#xa;        4: {&quot;fillColor&quot;: &quot;#ff4000&quot;, &quot;fontColor&quot;: &quot;#ffffff&quot;},&#xa;        3: {&quot;fillColor&quot;: &quot;#ffdd00&quot;, &quot;fontColor&quot;: &quot;#000000&quot;},&#xa;        2: {&quot;fillColor&quot;: &quot;#d4ff00&quot;, &quot;fontColor&quot;: &quot;#000000&quot;},&#xa;        1: {&quot;fillColor&quot;: &quot;#40ff00&quot;, &quot;fontColor&quot;: &quot;#000000&quot;}&#xa;    }&#xa;    var matrix = [ &#xa;        [5, 5, 4, 3, 2], &#xa;        [5, 4, 4, 3, 2], &#xa;        [5, 4, 4, 3, 2], &#xa;        [4, 3, 3, 2, 1], &#xa;        [3, 2, 2, 1, 1], &#xa;    ];&#xa;    var result = {};&#xa;    &#xa;    if (&quot;Knowledge&quot; in collection.cellAttributes &amp;&amp; &quot;Resources&quot; in collection.cellAttributes) {&#xa;        var knowledgeIndex = parseInt(collection.cellAttributes[&quot;Knowledge&quot;]) - 1; &#xa;        var resourcesIndex = parseInt(collection.cellAttributes[&quot;Resources&quot;]) - 1;&#xa;        &#xa;        var value = Math.min(5, &#xa;            Math.max(collection.globalAttributes[&quot;Location&quot;].max, &#xa;                Math.max( matrix[knowledgeIndex][resourcesIndex] - parseInt(collection.cellAttributes[&quot;Location&quot;])) &#xa;            ));&#xa;        result = colorMatrix[value] || result;&#xa;        result[&quot;value&quot;] = value;&#xa;    }&#xa;    &#xa;    return result;&#xa;}" />
            <ag_computed_attributes_function name="Risk" id="6c831697g9i0a" default="" fn="function(collection){&#xa;    var riskMatrix = {&#xa;        &quot;V&quot;: {&quot;fillColor&quot;: &quot;#cc0000&quot;, &quot;fontColor&quot;: &quot;#ffffff&quot;},&#xa;        &quot;S&quot;: {&quot;fillColor&quot;: &quot;#ff4000&quot;, &quot;fontColor&quot;: &quot;#ffffff&quot;},&#xa;        &quot;M&quot;: {&quot;fillColor&quot;: &quot;#ffdd00&quot;, &quot;fontColor&quot;: &quot;#000000&quot;},&#xa;        &quot;L&quot;: {&quot;fillColor&quot;: &quot;#40ff00&quot;, &quot;fontColor&quot;: &quot;#000000&quot;},&#xa;    };&#xa;    var result = {};&#xa;    &#xa;    if (&quot;_risk&quot; in collection.cellAttributes) {&#xa;        var risk = collection.cellAttributes[&quot;_risk&quot;];&#xa;        result = riskMatrix[risk] || result;&#xa;        result[&quot;value&quot;] = risk;&#xa;    }&#xa;    &#xa;    return result; &#xa;}" />
          </ag_computed_attributes_functions>
          <mxCell />
        </object>
        <object id="1">
          <ag_attributes />
          <ag_computed_attributes />
          <mxCell parent="0" />
        </object>
        <object label="Angriffsziel&#xa;Reisendenlenkung durch den Bahnhof" id="-4xTDCNd8uaIH-OiAP7f-46">
          <ag_attributes />
          <ag_computed_attributes />
          <mxCell style="whiteSpace=wrap;shape=trapezoid;size=0.075;" parent="1" vertex="1">
            <mxGeometry x="980" y="40" width="300" height="60" as="geometry" />
          </mxCell>
        </object>
        <object id="-4xTDCNd8uaIH-OiAP7f-47">
          <ag_attributes />
          <ag_computed_attributes />
          <mxCell style="edgeStyle=none;rounded=0;orthogonalLoop=1;jettySize=auto;strokeWidth=2;verticalAlign=top;spacingRight=20;strokeColor=#000000;" parent="1" source="-4xTDCNd8uaIH-OiAP7f-49" target="-4xTDCNd8uaIH-OiAP7f-77" edge="1">
            <mxGeometry relative="1" as="geometry" />
          </mxCell>
        </object>
        <object id="-4xTDCNd8uaIH-OiAP7f-48">
          <ag_attributes />
          <ag_computed_attributes />
          <mxCell style="edgeStyle=none;rounded=0;orthogonalLoop=1;jettySize=auto;strokeWidth=2;verticalAlign=top;spacingRight=20;strokeColor=#000000;" parent="1" source="-4xTDCNd8uaIH-OiAP7f-49" target="-4xTDCNd8uaIH-OiAP7f-80" edge="1">
            <mxGeometry relative="1" as="geometry" />
          </mxCell>
        </object>
        <object label="Falsche Führung durch Roboterassistenten" Knowledge="" Resources="" Location="" id="-4xTDCNd8uaIH-OiAP7f-49">
          <ag_attributes label="NaN" Knowledge="5" Resources="5" Location="1" _marking="-4xTDCNd8uaIH-OiAP7f-77" />
          <ag_computed_attributes fillColor="#40ff00" fontColor="#000000" value="1" />
          <ag_computed_attributes_function_reference ag_computed_attributes_function_reference="dbg60ff69g9a" />
          <ag_aggregation_function_reference ag_aggregation_function_reference="6b1d22791hih8" />
          <mxCell style="whiteSpace=wrap;shape=attackgraphs.node;verticalAlign=top;spacingRight=20;" parent="1" vertex="1">
            <mxGeometry x="780" y="520" width="140" height="75" as="geometry" />
          </mxCell>
        </object>
        <object id="-4xTDCNd8uaIH-OiAP7f-50">
          <ag_attributes />
          <ag_computed_attributes />
          <mxCell style="edgeStyle=none;rounded=0;orthogonalLoop=1;jettySize=auto;strokeWidth=2;verticalAlign=top;spacingRight=20;strokeColor=#000000;" parent="1" source="-4xTDCNd8uaIH-OiAP7f-52" target="-4xTDCNd8uaIH-OiAP7f-58" edge="1">
            <mxGeometry relative="1" as="geometry" />
          </mxCell>
        </object>
        <object id="-4xTDCNd8uaIH-OiAP7f-51">
          <ag_attributes />
          <ag_computed_attributes />
          <mxCell style="edgeStyle=none;rounded=0;orthogonalLoop=1;jettySize=auto;strokeWidth=2;verticalAlign=top;spacingRight=20;strokeColor=#000000;" parent="1" source="-4xTDCNd8uaIH-OiAP7f-52" target="-4xTDCNd8uaIH-OiAP7f-57" edge="1">
            <mxGeometry relative="1" as="geometry" />
          </mxCell>
        </object>
        <object label="Auslastungserkennung manipulieren" Knowledge="" Resources="" Location="" id="-4xTDCNd8uaIH-OiAP7f-52">
          <ag_attributes label="NaN" Knowledge="4" Resources="4" Location="1" _marking="-4xTDCNd8uaIH-OiAP7f-58" />
          <ag_computed_attributes fillColor="#40ff00" fontColor="#000000" value="1" />
          <ag_computed_attributes_function_reference ag_computed_attributes_function_reference="dbg60ff69g9a" />
          <ag_aggregation_function_reference ag_aggregation_function_reference="6b1d22791hih8" />
          <mxCell style="whiteSpace=wrap;shape=attackgraphs.node;verticalAlign=top;spacingRight=20;" parent="1" vertex="1">
            <mxGeometry x="240" y="520" width="150" height="75" as="geometry" />
          </mxCell>
        </object>
        <object id="GgrNti0cYKfVZOgplMKi-19">
          <ag_attributes />
          <ag_computed_attributes />
          <mxCell style="edgeStyle=none;rounded=0;orthogonalLoop=1;jettySize=auto;html=1;strokeWidth=2;startArrow=diamondThin;startFill=1;endArrow=none;endFill=0;strokeColor=#000000;" parent="1" source="-4xTDCNd8uaIH-OiAP7f-53" target="GgrNti0cYKfVZOgplMKi-18" edge="1">
            <mxGeometry relative="1" as="geometry" />
          </mxCell>
        </object>
        <object label="Jamming der drahtlosen Kommunikation" Knowledge="2" Resources="2" Location="1" id="-4xTDCNd8uaIH-OiAP7f-53">
          <ag_attributes label="NaN" Knowledge="5" Resources="4" Location="1" />
          <ag_computed_attributes fillColor="#40ff00" fontColor="#000000" value="1" />
          <ag_aggregation_function_reference ag_aggregation_function_reference="73f575i0ghij5" />
          <ag_computed_attributes_function_reference ag_computed_attributes_function_reference="dbg60ff69g9a" />
          <mxCell style="fillColor=#fee599;whiteSpace=wrap;shape=attackgraphs.node;verticalAlign=top;spacingRight=20;" parent="1" vertex="1">
            <mxGeometry x="550" y="520" width="150" height="75" as="geometry" />
          </mxCell>
        </object>
        <object id="-4xTDCNd8uaIH-OiAP7f-54">
          <ag_attributes />
          <ag_computed_attributes />
          <mxCell style="edgeStyle=none;rounded=0;orthogonalLoop=1;jettySize=auto;exitX=0;exitY=0.25;exitDx=0;exitDy=0;exitPerimeter=0;strokeWidth=2;verticalAlign=top;spacingRight=20;strokeColor=#000000;" parent="1" source="-4xTDCNd8uaIH-OiAP7f-68" target="-4xTDCNd8uaIH-OiAP7f-66" edge="1">
            <mxGeometry relative="1" as="geometry" />
          </mxCell>
        </object>
        <object id="-4xTDCNd8uaIH-OiAP7f-55">
          <ag_attributes />
          <ag_computed_attributes />
          <mxCell style="edgeStyle=none;rounded=0;orthogonalLoop=1;jettySize=auto;entryX=1;entryY=0.5;entryDx=0;entryDy=0;entryPerimeter=0;strokeWidth=2;verticalAlign=top;spacingRight=20;strokeColor=#000000;" parent="1" source="-4xTDCNd8uaIH-OiAP7f-56" target="-4xTDCNd8uaIH-OiAP7f-68" edge="1">
            <mxGeometry relative="1" as="geometry" />
          </mxCell>
        </object>
        <object label="Individuelles Bewegungsprofil erstellen" Knowledge="" Resources="" Location="" id="-4xTDCNd8uaIH-OiAP7f-56">
          <ag_attributes label="NaN" Knowledge="5" Resources="5" Location="1" _marking="-4xTDCNd8uaIH-OiAP7f-68" />
          <ag_computed_attributes fillColor="#40ff00" fontColor="#000000" value="1" />
          <ag_computed_attributes_function_reference ag_computed_attributes_function_reference="dbg60ff69g9a" />
          <ag_aggregation_function_reference ag_aggregation_function_reference="6b1d22791hih8" />
          <mxCell style="whiteSpace=wrap;shape=attackgraphs.node;verticalAlign=top;spacingRight=20;" parent="1" vertex="1">
            <mxGeometry x="1456" y="290" width="210" height="60" as="geometry" />
          </mxCell>
        </object>
        <object id="GgrNti0cYKfVZOgplMKi-21">
          <ag_attributes />
          <ag_computed_attributes />
          <mxCell style="edgeStyle=none;rounded=0;orthogonalLoop=1;jettySize=auto;html=1;strokeWidth=2;startArrow=diamondThin;startFill=1;endArrow=none;endFill=0;strokeColor=#000000;" parent="1" source="-4xTDCNd8uaIH-OiAP7f-57" target="GgrNti0cYKfVZOgplMKi-20" edge="1">
            <mxGeometry relative="1" as="geometry" />
          </mxCell>
        </object>
        <object id="GgrNti0cYKfVZOgplMKi-23">
          <ag_attributes />
          <ag_computed_attributes />
          <mxCell style="edgeStyle=none;rounded=0;orthogonalLoop=1;jettySize=auto;html=1;strokeWidth=2;startArrow=diamondThin;startFill=1;endArrow=none;endFill=0;strokeColor=#000000;" parent="1" source="-4xTDCNd8uaIH-OiAP7f-57" target="GgrNti0cYKfVZOgplMKi-22" edge="1">
            <mxGeometry relative="1" as="geometry" />
          </mxCell>
        </object>
        <object id="GgrNti0cYKfVZOgplMKi-25">
          <ag_attributes />
          <ag_computed_attributes />
          <mxCell style="edgeStyle=none;rounded=0;orthogonalLoop=1;jettySize=auto;html=1;strokeWidth=2;startArrow=diamondThin;startFill=1;endArrow=none;endFill=0;strokeColor=#000000;" parent="1" source="-4xTDCNd8uaIH-OiAP7f-57" target="GgrNti0cYKfVZOgplMKi-15" edge="1">
            <mxGeometry relative="1" as="geometry" />
          </mxCell>
        </object>
        <object label="Vorhersage des maschinellen Lernens manipulieren" Knowledge="4" Resources="3" Location="0" id="-4xTDCNd8uaIH-OiAP7f-57">
          <ag_attributes label="NaN" Knowledge="5" Resources="5" Location="1" />
          <ag_computed_attributes fillColor="#40ff00" fontColor="#000000" value="1" />
          <ag_computed_attributes_function_reference ag_computed_attributes_function_reference="dbg60ff69g9a" />
          <ag_aggregation_function_reference ag_aggregation_function_reference="73f575i0ghij5" />
          <mxCell style="fillColor=#fee599;whiteSpace=wrap;shape=attackgraphs.node;verticalAlign=top;spacingRight=20;" parent="1" vertex="1">
            <mxGeometry x="330" y="680" width="150" height="75" as="geometry" />
          </mxCell>
        </object>
        <object id="GgrNti0cYKfVZOgplMKi-6">
          <ag_attributes />
          <ag_computed_attributes />
          <mxCell style="rounded=0;orthogonalLoop=1;jettySize=auto;html=1;strokeWidth=2;startArrow=diamondThin;startFill=1;endArrow=none;endFill=0;strokeColor=#000000;" parent="1" source="-4xTDCNd8uaIH-OiAP7f-58" target="GgrNti0cYKfVZOgplMKi-4" edge="1">
            <mxGeometry relative="1" as="geometry" />
          </mxCell>
        </object>
        <object id="GgrNti0cYKfVZOgplMKi-7">
          <ag_attributes />
          <ag_computed_attributes />
          <mxCell style="edgeStyle=none;rounded=0;orthogonalLoop=1;jettySize=auto;html=1;strokeWidth=2;startArrow=diamondThin;startFill=1;endArrow=none;endFill=0;strokeColor=#000000;" parent="1" source="-4xTDCNd8uaIH-OiAP7f-58" target="GgrNti0cYKfVZOgplMKi-2" edge="1">
            <mxGeometry relative="1" as="geometry" />
          </mxCell>
        </object>
        <object label="Kameras kompromittieren" Knowledge="1" Resources="1" Location="1" id="-4xTDCNd8uaIH-OiAP7f-58">
          <ag_attributes label="NaN" Knowledge="4" Resources="4" Location="1" />
          <ag_computed_attributes fillColor="#40ff00" fontColor="#000000" value="1" />
          <ag_computed_attributes_function_reference ag_computed_attributes_function_reference="dbg60ff69g9a" />
          <ag_aggregation_function_reference ag_aggregation_function_reference="73f575i0ghij5" />
          <mxCell style="whiteSpace=wrap;fillColor=#d7e3bf;shape=attackgraphs.node;verticalAlign=top;spacingRight=20;" parent="1" vertex="1">
            <mxGeometry x="130" y="680" width="150" height="75" as="geometry" />
          </mxCell>
        </object>
        <object id="-4xTDCNd8uaIH-OiAP7f-59">
          <ag_attributes />
          <ag_computed_attributes />
          <mxCell style="rounded=0;orthogonalLoop=1;jettySize=auto;strokeWidth=2;verticalAlign=top;spacingRight=20;strokeColor=#000000;" parent="1" source="-4xTDCNd8uaIH-OiAP7f-61" target="-4xTDCNd8uaIH-OiAP7f-49" edge="1">
            <mxGeometry relative="1" as="geometry" />
          </mxCell>
        </object>
        <object label="" id="-4xTDCNd8uaIH-OiAP7f-60">
          <ag_attributes />
          <ag_computed_attributes />
          <mxCell style="edgeStyle=none;rounded=0;orthogonalLoop=1;jettySize=auto;strokeWidth=2;verticalAlign=top;spacingRight=20;strokeColor=#000000;" parent="1" source="-4xTDCNd8uaIH-OiAP7f-61" target="-4xTDCNd8uaIH-OiAP7f-64" edge="1">
            <mxGeometry relative="1" as="geometry">
              <mxPoint x="1298.181818181818" y="430" as="targetPoint" />
            </mxGeometry>
          </mxCell>
        </object>
        <object label="Reisenden fehlleiten&#xa;(nicht ans Ziel bringen)" Knowledge="" Resources="" Location="" id="-4xTDCNd8uaIH-OiAP7f-61">
          <ag_attributes label="NaN" Knowledge="5" Resources="5" Location="1" _marking="-4xTDCNd8uaIH-OiAP7f-49" />
          <ag_computed_attributes fillColor="#40ff00" fontColor="#000000" value="1" />
          <ag_aggregation_function_reference ag_aggregation_function_reference="6b1d22791hih8" />
          <ag_computed_attributes_function_reference ag_computed_attributes_function_reference="dbg60ff69g9a" />
          <mxCell style="whiteSpace=wrap;shape=attackgraphs.node;verticalAlign=top;spacingRight=20;" parent="1" vertex="1">
            <mxGeometry x="925" y="290" width="150" height="60" as="geometry" />
          </mxCell>
        </object>
        <object id="-4xTDCNd8uaIH-OiAP7f-62">
          <ag_attributes />
          <ag_computed_attributes />
          <mxCell style="edgeStyle=none;rounded=0;orthogonalLoop=1;jettySize=auto;strokeWidth=2;verticalAlign=top;spacingRight=20;strokeColor=#000000;" parent="1" source="-4xTDCNd8uaIH-OiAP7f-64" target="-4xTDCNd8uaIH-OiAP7f-78" edge="1">
            <mxGeometry relative="1" as="geometry" />
          </mxCell>
        </object>
        <object id="-4xTDCNd8uaIH-OiAP7f-63">
          <ag_attributes />
          <ag_computed_attributes />
          <mxCell style="edgeStyle=none;rounded=0;orthogonalLoop=1;jettySize=auto;strokeWidth=2;verticalAlign=top;spacingRight=20;strokeColor=#000000;" parent="1" source="-4xTDCNd8uaIH-OiAP7f-64" target="-4xTDCNd8uaIH-OiAP7f-79" edge="1">
            <mxGeometry relative="1" as="geometry" />
          </mxCell>
        </object>
        <object label="Falsche Empfehlung auf Automated Personal Assistant" Knowledge="" Resources="" Location="" id="-4xTDCNd8uaIH-OiAP7f-64">
          <ag_attributes label="NaN" Knowledge="5" Resources="5" Location="1" _marking="-4xTDCNd8uaIH-OiAP7f-78" />
          <ag_computed_attributes fillColor="#40ff00" fontColor="#000000" value="1" />
          <ag_computed_attributes_function_reference ag_computed_attributes_function_reference="dbg60ff69g9a" />
          <ag_aggregation_function_reference ag_aggregation_function_reference="6b1d22791hih8" />
          <mxCell style="whiteSpace=wrap;shape=attackgraphs.node;verticalAlign=top;spacingRight=20;" parent="1" vertex="1">
            <mxGeometry x="1075" y="520" width="150" height="75" as="geometry" />
          </mxCell>
        </object>
        <object id="-4xTDCNd8uaIH-OiAP7f-65">
          <ag_attributes />
          <ag_computed_attributes />
          <mxCell style="edgeStyle=none;rounded=0;orthogonalLoop=1;jettySize=auto;strokeWidth=2;verticalAlign=top;spacingRight=20;strokeColor=#000000;" parent="1" source="-4xTDCNd8uaIH-OiAP7f-66" target="-4xTDCNd8uaIH-OiAP7f-72" edge="1">
            <mxGeometry relative="1" as="geometry" />
          </mxCell>
        </object>
        <object label="Bewegungen des Roboterassistenten belauschen" Knowledge="" Resources="" Location="" id="-4xTDCNd8uaIH-OiAP7f-66">
          <ag_attributes label="NaN" Knowledge="4" Resources="3" Location="1" _marking="-4xTDCNd8uaIH-OiAP7f-72" />
          <ag_computed_attributes fillColor="#d4ff00" fontColor="#000000" value="2" />
          <ag_computed_attributes_function_reference ag_computed_attributes_function_reference="dbg60ff69g9a" />
          <ag_aggregation_function_reference ag_aggregation_function_reference="6b1d22791hih8" />
          <mxCell style="whiteSpace=wrap;shape=attackgraphs.node;verticalAlign=top;spacingRight=20;" parent="1" vertex="1">
            <mxGeometry x="1350" y="520" width="150" height="75" as="geometry" />
          </mxCell>
        </object>
        <object id="-4xTDCNd8uaIH-OiAP7f-67">
          <ag_attributes />
          <ag_computed_attributes />
          <mxCell style="edgeStyle=none;rounded=0;orthogonalLoop=1;jettySize=auto;strokeWidth=2;verticalAlign=top;spacingRight=20;strokeColor=#000000;" parent="1" source="-4xTDCNd8uaIH-OiAP7f-68" target="-4xTDCNd8uaIH-OiAP7f-71" edge="1">
            <mxGeometry relative="1" as="geometry" />
          </mxCell>
        </object>
        <object label="" id="-4xTDCNd8uaIH-OiAP7f-68">
          <ag_attributes label="NaN" Knowledge="5" Resources="5" Location="1" _marking="-4xTDCNd8uaIH-OiAP7f-66;-4xTDCNd8uaIH-OiAP7f-71" />
          <ag_computed_attributes />
          <ag_aggregation_function_reference ag_aggregation_function_reference="gf0d4f199018" />
          <mxCell style="shape=or;whiteSpace=wrap;rotation=-90;verticalAlign=top;spacingRight=20;" parent="1" vertex="1">
            <mxGeometry x="1544" y="400" width="30" height="40" as="geometry" />
          </mxCell>
        </object>
        <object id="-4xTDCNd8uaIH-OiAP7f-69">
          <ag_attributes />
          <ag_computed_attributes />
          <mxCell style="edgeStyle=none;rounded=0;orthogonalLoop=1;jettySize=auto;strokeWidth=2;verticalAlign=top;spacingRight=20;strokeColor=#000000;" parent="1" source="-4xTDCNd8uaIH-OiAP7f-71" target="-4xTDCNd8uaIH-OiAP7f-73" edge="1">
            <mxGeometry relative="1" as="geometry" />
          </mxCell>
        </object>
        <object id="-4xTDCNd8uaIH-OiAP7f-70">
          <ag_attributes />
          <ag_computed_attributes />
          <mxCell style="edgeStyle=none;rounded=0;orthogonalLoop=1;jettySize=auto;strokeWidth=2;verticalAlign=top;spacingRight=20;strokeColor=#000000;" parent="1" source="-4xTDCNd8uaIH-OiAP7f-71" target="-4xTDCNd8uaIH-OiAP7f-74" edge="1">
            <mxGeometry relative="1" as="geometry" />
          </mxCell>
        </object>
        <object label="Nutzung des Roboterassistenten einer Person zuordnen" Knowledge="" Resources="" Location="" id="-4xTDCNd8uaIH-OiAP7f-71">
          <ag_attributes label="NaN" Knowledge="4" Resources="4" Location="0" _marking="-4xTDCNd8uaIH-OiAP7f-73" />
          <ag_computed_attributes fillColor="#d4ff00" fontColor="#000000" value="2" />
          <ag_computed_attributes_function_reference ag_computed_attributes_function_reference="dbg60ff69g9a" />
          <ag_aggregation_function_reference ag_aggregation_function_reference="6b1d22791hih8" />
          <mxCell style="whiteSpace=wrap;shape=attackgraphs.node;verticalAlign=top;spacingRight=20;" parent="1" vertex="1">
            <mxGeometry x="1620" y="520" width="150" height="75" as="geometry" />
          </mxCell>
        </object>
        <object id="GgrNti0cYKfVZOgplMKi-10">
          <ag_attributes />
          <ag_computed_attributes />
          <mxCell style="edgeStyle=none;rounded=0;orthogonalLoop=1;jettySize=auto;html=1;strokeWidth=2;startArrow=diamondThin;startFill=1;endArrow=none;endFill=0;strokeColor=#000000;" parent="1" source="-4xTDCNd8uaIH-OiAP7f-72" target="GgrNti0cYKfVZOgplMKi-8" edge="1">
            <mxGeometry relative="1" as="geometry" />
          </mxCell>
        </object>
        <object label="Kommunikationsnetz belauschen" Knowledge="2" Resources="1" Location="1" id="-4xTDCNd8uaIH-OiAP7f-72">
          <ag_attributes label="NaN" Knowledge="4" Resources="3" Location="1" />
          <ag_computed_attributes fillColor="#d4ff00" fontColor="#000000" value="2" />
          <ag_aggregation_function_reference ag_aggregation_function_reference="73f575i0ghij5" />
          <ag_computed_attributes_function_reference ag_computed_attributes_function_reference="dbg60ff69g9a" />
          <mxCell style="whiteSpace=wrap;fillColor=#d7e3bf;shape=attackgraphs.node;verticalAlign=top;spacingRight=20;" parent="1" vertex="1">
            <mxGeometry x="1350" y="680" width="150" height="75" as="geometry" />
          </mxCell>
        </object>
        <object id="GgrNti0cYKfVZOgplMKi-12">
          <ag_attributes />
          <ag_computed_attributes />
          <mxCell style="edgeStyle=none;rounded=0;orthogonalLoop=1;jettySize=auto;html=1;strokeWidth=2;startArrow=diamondThin;startFill=1;endArrow=none;endFill=0;strokeColor=#000000;" parent="1" source="-4xTDCNd8uaIH-OiAP7f-73" target="GgrNti0cYKfVZOgplMKi-2" edge="1">
            <mxGeometry relative="1" as="geometry" />
          </mxCell>
        </object>
        <object label="Bilder von stationären Kameras auswerten" Knowledge="3" Resources="3" Location="0" id="-4xTDCNd8uaIH-OiAP7f-73">
          <ag_attributes label="NaN" Knowledge="4" Resources="4" Location="0" />
          <ag_computed_attributes fillColor="#d4ff00" fontColor="#000000" value="2" />
          <ag_computed_attributes_function_reference ag_computed_attributes_function_reference="dbg60ff69g9a" />
          <ag_aggregation_function_reference ag_aggregation_function_reference="73f575i0ghij5" />
          <mxCell style="whiteSpace=wrap;fillColor=#d7e3bf;shape=attackgraphs.node;verticalAlign=top;spacingRight=20;" parent="1" vertex="1">
            <mxGeometry x="1520" y="680" width="150" height="75" as="geometry" />
          </mxCell>
        </object>
        <object id="GgrNti0cYKfVZOgplMKi-14">
          <ag_attributes />
          <ag_computed_attributes />
          <mxCell style="edgeStyle=none;rounded=0;orthogonalLoop=1;jettySize=auto;html=1;strokeWidth=2;startArrow=diamondThin;startFill=1;endArrow=none;endFill=0;strokeColor=#000000;" parent="1" source="-4xTDCNd8uaIH-OiAP7f-74" target="GgrNti0cYKfVZOgplMKi-20" edge="1">
            <mxGeometry relative="1" as="geometry">
              <mxPoint x="1720" y="890" as="targetPoint" />
            </mxGeometry>
          </mxCell>
        </object>
        <object id="GgrNti0cYKfVZOgplMKi-16">
          <ag_attributes />
          <ag_computed_attributes />
          <mxCell style="edgeStyle=none;rounded=0;orthogonalLoop=1;jettySize=auto;html=1;strokeWidth=2;startArrow=diamondThin;startFill=1;endArrow=none;endFill=0;strokeColor=#000000;" parent="1" source="-4xTDCNd8uaIH-OiAP7f-74" target="GgrNti0cYKfVZOgplMKi-15" edge="1">
            <mxGeometry relative="1" as="geometry" />
          </mxCell>
        </object>
        <object label="Sensorik (Kamera, Bluetooth etc.) des Roboterassistenten auswerten" Knowledge="3" Resources="3" Location="1" id="-4xTDCNd8uaIH-OiAP7f-74">
          <ag_attributes label="NaN" Knowledge="5" Resources="5" Location="1" />
          <ag_computed_attributes fillColor="#40ff00" fontColor="#000000" value="1" />
          <ag_computed_attributes_function_reference ag_computed_attributes_function_reference="dbg60ff69g9a" />
          <ag_aggregation_function_reference ag_aggregation_function_reference="73f575i0ghij5" />
          <mxCell style="whiteSpace=wrap;fillColor=#d7e3bf;shape=attackgraphs.node;verticalAlign=top;spacingRight=20;" parent="1" vertex="1">
            <mxGeometry x="1720" y="680" width="190" height="75" as="geometry" />
          </mxCell>
        </object>
        <object id="-4xTDCNd8uaIH-OiAP7f-75">
          <ag_attributes />
          <ag_computed_attributes />
          <mxCell style="edgeStyle=none;rounded=0;orthogonalLoop=1;jettySize=auto;strokeWidth=2;verticalAlign=top;spacingRight=20;strokeColor=#000000;" parent="1" source="-4xTDCNd8uaIH-OiAP7f-76" target="-4xTDCNd8uaIH-OiAP7f-53" edge="1">
            <mxGeometry relative="1" as="geometry" />
          </mxCell>
        </object>
        <object label="Verfügbarkeit der Reisendenlenkung beschränken" Knowledge="" Resources="" Location="" id="-4xTDCNd8uaIH-OiAP7f-76">
          <ag_attributes label="NaN" Knowledge="5" Resources="4" Location="1" _marking="-4xTDCNd8uaIH-OiAP7f-53" />
          <ag_computed_attributes fillColor="#40ff00" fontColor="#000000" value="1" />
          <ag_aggregation_function_reference ag_aggregation_function_reference="6b1d22791hih8" />
          <ag_computed_attributes_function_reference ag_computed_attributes_function_reference="dbg60ff69g9a" />
          <mxCell style="whiteSpace=wrap;shape=attackgraphs.node;verticalAlign=top;spacingRight=20;" parent="1" vertex="1">
            <mxGeometry x="520" y="290" width="210" height="60" as="geometry" />
          </mxCell>
        </object>
        <object id="GgrNti0cYKfVZOgplMKi-33">
          <ag_attributes />
          <ag_computed_attributes />
          <mxCell style="edgeStyle=none;rounded=0;orthogonalLoop=1;jettySize=auto;html=1;strokeWidth=2;startArrow=diamondThin;startFill=1;endArrow=none;endFill=0;strokeColor=#000000;" parent="1" source="-4xTDCNd8uaIH-OiAP7f-77" target="GgrNti0cYKfVZOgplMKi-9" edge="1">
            <mxGeometry relative="1" as="geometry" />
          </mxCell>
        </object>
        <object id="GgrNti0cYKfVZOgplMKi-35">
          <ag_attributes />
          <ag_computed_attributes />
          <mxCell style="edgeStyle=none;rounded=0;orthogonalLoop=1;jettySize=auto;html=1;strokeWidth=2;startArrow=diamondThin;startFill=1;endArrow=none;endFill=0;strokeColor=#000000;" parent="1" source="-4xTDCNd8uaIH-OiAP7f-77" target="GgrNti0cYKfVZOgplMKi-34" edge="1">
            <mxGeometry relative="1" as="geometry" />
          </mxCell>
        </object>
        <object label="Roboterassistent kompromittieren" Knowledge="3" Resources="3" Location="0" id="-4xTDCNd8uaIH-OiAP7f-77">
          <ag_attributes label="NaN" Knowledge="5" Resources="5" Location="1" />
          <ag_computed_attributes fillColor="#40ff00" fontColor="#000000" value="1" />
          <ag_computed_attributes_function_reference ag_computed_attributes_function_reference="dbg60ff69g9a" />
          <ag_aggregation_function_reference ag_aggregation_function_reference="73f575i0ghij5" />
          <mxCell style="whiteSpace=wrap;fillColor=#fee599;shape=attackgraphs.node;verticalAlign=top;spacingRight=20;" parent="1" vertex="1">
            <mxGeometry x="820" y="680" width="150" height="75" as="geometry" />
          </mxCell>
        </object>
        <object id="GgrNti0cYKfVZOgplMKi-27">
          <ag_attributes />
          <ag_computed_attributes />
          <mxCell style="edgeStyle=none;rounded=0;orthogonalLoop=1;jettySize=auto;html=1;strokeWidth=2;startArrow=diamondThin;startFill=1;endArrow=none;endFill=0;strokeColor=#000000;" parent="1" source="-4xTDCNd8uaIH-OiAP7f-78" target="GgrNti0cYKfVZOgplMKi-9" edge="1">
            <mxGeometry relative="1" as="geometry" />
          </mxCell>
        </object>
        <object id="GgrNti0cYKfVZOgplMKi-28">
          <ag_attributes />
          <ag_computed_attributes />
          <mxCell style="edgeStyle=none;rounded=0;orthogonalLoop=1;jettySize=auto;html=1;strokeWidth=2;startArrow=diamondThin;startFill=1;endArrow=none;endFill=0;strokeColor=#000000;" parent="1" source="-4xTDCNd8uaIH-OiAP7f-78" target="GgrNti0cYKfVZOgplMKi-8" edge="1">
            <mxGeometry relative="1" as="geometry" />
          </mxCell>
        </object>
        <object label="Kommunikationsnetz kompromittieren" Knowledge="3" Resources="1" Location="1" id="-4xTDCNd8uaIH-OiAP7f-78">
          <ag_attributes label="NaN" Knowledge="5" Resources="5" Location="1" />
          <ag_computed_attributes fillColor="#40ff00" fontColor="#000000" value="1" />
          <ag_computed_attributes_function_reference ag_computed_attributes_function_reference="dbg60ff69g9a" />
          <ag_aggregation_function_reference ag_aggregation_function_reference="73f575i0ghij5" />
          <mxCell style="whiteSpace=wrap;fillColor=#d7e3bf;shape=attackgraphs.node;verticalAlign=top;spacingRight=20;" parent="1" vertex="1">
            <mxGeometry x="990" y="680" width="150" height="75" as="geometry" />
          </mxCell>
        </object>
        <object id="GgrNti0cYKfVZOgplMKi-26">
          <ag_attributes />
          <ag_computed_attributes />
          <mxCell style="edgeStyle=none;rounded=0;orthogonalLoop=1;jettySize=auto;html=1;strokeWidth=2;startArrow=diamondThin;startFill=1;endArrow=none;endFill=0;strokeColor=#000000;" parent="1" source="-4xTDCNd8uaIH-OiAP7f-79" target="GgrNti0cYKfVZOgplMKi-20" edge="1">
            <mxGeometry relative="1" as="geometry" />
          </mxCell>
        </object>
        <object id="GgrNti0cYKfVZOgplMKi-30">
          <ag_attributes />
          <ag_computed_attributes />
          <mxCell style="edgeStyle=none;rounded=0;orthogonalLoop=1;jettySize=auto;html=1;strokeWidth=2;startArrow=diamondThin;startFill=1;endArrow=none;endFill=0;strokeColor=#000000;" parent="1" source="-4xTDCNd8uaIH-OiAP7f-79" target="GgrNti0cYKfVZOgplMKi-29" edge="1">
            <mxGeometry relative="1" as="geometry" />
          </mxCell>
        </object>
        <object label="Automated Personal Assistant kompromittieren" Knowledge="3" Resources="2" Location="0" id="-4xTDCNd8uaIH-OiAP7f-79">
          <ag_attributes label="NaN" Knowledge="5" Resources="5" Location="0" />
          <ag_computed_attributes fillColor="#40ff00" fontColor="#000000" value="1" />
          <ag_computed_attributes_function_reference ag_computed_attributes_function_reference="dbg60ff69g9a" />
          <ag_aggregation_function_reference ag_aggregation_function_reference="73f575i0ghij5" />
          <mxCell style="whiteSpace=wrap;fillColor=#d7e3bf;shape=attackgraphs.node;verticalAlign=top;spacingRight=20;" parent="1" vertex="1">
            <mxGeometry x="1165" y="680" width="150" height="75" as="geometry" />
          </mxCell>
        </object>
        <object id="GgrNti0cYKfVZOgplMKi-36">
          <ag_attributes />
          <ag_computed_attributes />
          <mxCell style="edgeStyle=none;rounded=0;orthogonalLoop=1;jettySize=auto;html=1;strokeWidth=2;startArrow=diamondThin;startFill=1;endArrow=none;endFill=0;strokeColor=#000000;" parent="1" source="-4xTDCNd8uaIH-OiAP7f-80" target="GgrNti0cYKfVZOgplMKi-4" edge="1">
            <mxGeometry relative="1" as="geometry" />
          </mxCell>
        </object>
        <object label="Falsche Vorgabe durch kompromittiertes Leitsystem kommunizieren" Knowledge="3" Resources="3" Location="0" id="-4xTDCNd8uaIH-OiAP7f-80">
          <ag_attributes label="NaN" Knowledge="5" Resources="5" Location="1" />
          <ag_computed_attributes fillColor="#40ff00" fontColor="#000000" value="1" />
          <ag_computed_attributes_function_reference ag_computed_attributes_function_reference="dbg60ff69g9a" />
          <ag_aggregation_function_reference ag_aggregation_function_reference="73f575i0ghij5" />
          <mxCell style="whiteSpace=wrap;fillColor=#d7e3bf;shape=attackgraphs.node;verticalAlign=top;spacingRight=20;" parent="1" vertex="1">
            <mxGeometry x="640" y="680" width="165" height="75" as="geometry" />
          </mxCell>
        </object>
        <object label="2" id="-4xTDCNd8uaIH-OiAP7f-81">
          <ag_attributes />
          <ag_computed_attributes />
          <mxCell style="edgeStyle=none;rounded=0;orthogonalLoop=1;jettySize=auto;strokeWidth=2;fontSize=15;strokeColor=#000000;" parent="1" source="-4xTDCNd8uaIH-OiAP7f-95" target="-4xTDCNd8uaIH-OiAP7f-61" edge="1">
            <mxGeometry relative="1" as="geometry" />
          </mxCell>
        </object>
        <object label="2" id="-4xTDCNd8uaIH-OiAP7f-83">
          <ag_attributes />
          <ag_computed_attributes />
          <mxCell style="edgeStyle=none;rounded=0;orthogonalLoop=1;jettySize=auto;strokeWidth=2;fontSize=15;strokeColor=#000000;" parent="1" source="-4xTDCNd8uaIH-OiAP7f-95" target="-4xTDCNd8uaIH-OiAP7f-88" edge="1">
            <mxGeometry relative="1" as="geometry" />
          </mxCell>
        </object>
        <object label="2" id="-4xTDCNd8uaIH-OiAP7f-93">
          <ag_attributes />
          <ag_computed_attributes />
          <mxCell style="rounded=0;orthogonalLoop=1;jettySize=auto;html=1;strokeWidth=2;fontSize=15;strokeColor=#000000;" parent="1" source="-4xTDCNd8uaIH-OiAP7f-95" target="-4xTDCNd8uaIH-OiAP7f-76" edge="1">
            <mxGeometry relative="1" as="geometry" />
          </mxCell>
        </object>
        <object label="3" id="-4xTDCNd8uaIH-OiAP7f-85">
          <ag_attributes />
          <ag_computed_attributes />
          <mxCell style="edgeStyle=none;rounded=0;orthogonalLoop=1;jettySize=auto;strokeWidth=2;fontSize=15;strokeColor=#000000;" parent="1" source="-4xTDCNd8uaIH-OiAP7f-86" target="-4xTDCNd8uaIH-OiAP7f-56" edge="1">
            <mxGeometry relative="1" as="geometry">
              <mxPoint x="1561" y="270" as="targetPoint" />
            </mxGeometry>
          </mxCell>
        </object>
        <object label="Verletzung der Privatsphäre" id="-4xTDCNd8uaIH-OiAP7f-86">
          <ag_attributes _risk="L" _marking="-4xTDCNd8uaIH-OiAP7f-56" _weight="-4xTDCNd8uaIH-OiAP7f-56:3" />
          <ag_computed_attributes fillColor="#40ff00" fontColor="#000000" value="L" />
          <ag_aggregation_function_reference ag_aggregation_function_reference="egf49jfgj408" />
          <ag_computed_attributes_function_reference ag_computed_attributes_function_reference="6c831697g9i0a" />
          <mxCell style="shape=attackgraphs.node;rounded=1" parent="1" vertex="1">
            <mxGeometry x="1450" y="160" width="222" height="48" as="geometry" />
          </mxCell>
        </object>
        <object id="-4xTDCNd8uaIH-OiAP7f-87">
          <ag_attributes />
          <ag_computed_attributes />
          <mxCell style="edgeStyle=none;rounded=0;orthogonalLoop=1;jettySize=auto;strokeWidth=2;verticalAlign=top;spacingRight=20;strokeColor=#000000;" parent="1" source="-4xTDCNd8uaIH-OiAP7f-88" target="-4xTDCNd8uaIH-OiAP7f-52" edge="1">
            <mxGeometry relative="1" as="geometry" />
          </mxCell>
        </object>
        <object label="Umständliche Wege der Reisenden provozieren" Knowledge="" Resources="" Location="" id="-4xTDCNd8uaIH-OiAP7f-88">
          <ag_attributes label="NaN" Knowledge="4" Resources="4" Location="1" _marking="-4xTDCNd8uaIH-OiAP7f-52" />
          <ag_computed_attributes fillColor="#40ff00" fontColor="#000000" value="1" />
          <ag_aggregation_function_reference ag_aggregation_function_reference="6b1d22791hih8" />
          <ag_computed_attributes_function_reference ag_computed_attributes_function_reference="dbg60ff69g9a" />
          <mxCell style="whiteSpace=wrap;shape=attackgraphs.node;verticalAlign=top;spacingRight=20;" parent="1" vertex="1">
            <mxGeometry x="240" y="290" width="150" height="60" as="geometry" />
          </mxCell>
        </object>
        <object label="Strafvereitelung" id="-4xTDCNd8uaIH-OiAP7f-89">
          <ag_attributes _risk="L" _marking="-4xTDCNd8uaIH-OiAP7f-61" _weight="-4xTDCNd8uaIH-OiAP7f-61:2" />
          <ag_computed_attributes fillColor="#40ff00" fontColor="#000000" value="L" />
          <ag_computed_attributes_function_reference ag_computed_attributes_function_reference="6c831697g9i0a" />
          <ag_aggregation_function_reference ag_aggregation_function_reference="egf49jfgj408" />
          <mxCell style="shape=attackgraphs.node;rounded=1;" parent="1" vertex="1">
            <mxGeometry x="944.5" y="160" width="111" height="48" as="geometry" />
          </mxCell>
        </object>
        <object label="2" id="-4xTDCNd8uaIH-OiAP7f-90">
          <ag_attributes />
          <ag_computed_attributes />
          <mxCell style="edgeStyle=none;rounded=0;orthogonalLoop=1;jettySize=auto;strokeWidth=2;fontSize=15;strokeColor=#000000;" parent="1" source="-4xTDCNd8uaIH-OiAP7f-89" target="-4xTDCNd8uaIH-OiAP7f-61" edge="1">
            <mxGeometry relative="1" as="geometry">
              <mxPoint x="706.4285714285716" y="228" as="sourcePoint" />
              <mxPoint x="935" y="304.79999999999995" as="targetPoint" />
            </mxGeometry>
          </mxCell>
        </object>
        <object label="Reputationsschaden Betreiber" id="-4xTDCNd8uaIH-OiAP7f-95">
          <ag_aggregation_function_reference ag_aggregation_function_reference="egf49jfgj408" />
          <ag_computed_attributes_function_reference ag_computed_attributes_function_reference="6c831697g9i0a" />
          <ag_attributes _risk="L" _marking="-4xTDCNd8uaIH-OiAP7f-61;-4xTDCNd8uaIH-OiAP7f-88;-4xTDCNd8uaIH-OiAP7f-76" _weight="-4xTDCNd8uaIH-OiAP7f-61:2;-4xTDCNd8uaIH-OiAP7f-88:2;-4xTDCNd8uaIH-OiAP7f-76:2" />
          <ag_computed_attributes fillColor="#40ff00" fontColor="#000000" value="L" />
          <mxCell style="shape=attackgraphs.node;rounded=1" parent="1" vertex="1">
            <mxGeometry x="510" y="160" width="230" height="51.5" as="geometry" />
          </mxCell>
        </object>
        <object label="Werte von Intermodale Reisekette &lt;br&gt;(Gepäckziel manipulieren)" id="hlJk635r3doJFyI0tFxE-1">
          <ag_attributes />
          <ag_computed_attributes />
          <mxCell style="text;html=1;align=center;verticalAlign=top;resizable=0;points=[];autosize=1;strokeColor=none;fillColor=none;" parent="1" vertex="1">
            <mxGeometry x="790" y="760" width="200" height="30" as="geometry" />
          </mxCell>
        </object>
        <object label="Zugangsbeschränkung&#xa;Zugriffsschutz" Resources="1" Knowledge="1" Location="0" id="GgrNti0cYKfVZOgplMKi-2">
          <ag_attributes />
          <ag_computed_attributes />
          <mxCell style="shape=attackgraphs.node;fillColor=#DAE8FC;verticalAlign=top;" parent="1" vertex="1">
            <mxGeometry x="198.5" y="920" width="150" height="60" as="geometry" />
          </mxCell>
        </object>
        <object label="" id="GgrNti0cYKfVZOgplMKi-3">
          <ag_attributes />
          <ag_computed_attributes />
          <mxCell style="endArrow=none;dashed=1;html=1;rounded=0;strokeWidth=1;verticalAlign=top;strokeColor=#000000;" parent="1" edge="1">
            <mxGeometry width="50" height="50" relative="1" as="geometry">
              <mxPoint x="30" y="990" as="sourcePoint" />
              <mxPoint x="1900" y="990" as="targetPoint" />
            </mxGeometry>
          </mxCell>
        </object>
        <object label="Integritätsschutz der Umwelterfassung&#xa;Plausibilitätsprüfung&#xa;Redundanz" Resources="2" Knowledge="2" Location="0" id="GgrNti0cYKfVZOgplMKi-4">
          <ag_attributes />
          <ag_computed_attributes />
          <mxCell style="shape=attackgraphs.node;fillColor=#DAE8FC;verticalAlign=top;" parent="1" vertex="1">
            <mxGeometry x="90" y="1040" width="210" height="75" as="geometry" />
          </mxCell>
        </object>
        <object label="Verschlüsselung" Resources="2" Knowledge="2" Location="0" id="GgrNti0cYKfVZOgplMKi-8">
          <ag_attributes />
          <ag_computed_attributes />
          <mxCell style="shape=attackgraphs.node;fillColor=#DAE8FC;verticalAlign=top;" parent="1" vertex="1">
            <mxGeometry x="1394" y="920" width="150" height="60" as="geometry" />
          </mxCell>
        </object>
        <object label="Digitale Signatur" Resources="2" Knowledge="2" Location="1" id="GgrNti0cYKfVZOgplMKi-9">
          <ag_attributes />
          <ag_computed_attributes />
          <mxCell style="shape=attackgraphs.node;fillColor=#DAE8FC;verticalAlign=top;" parent="1" vertex="1">
            <mxGeometry x="970" y="920" width="150" height="60" as="geometry" />
          </mxCell>
        </object>
        <object label="Sicherer Speicher" Resources="2" Knowledge="2" Location="1" id="GgrNti0cYKfVZOgplMKi-15">
          <ag_attributes />
          <ag_computed_attributes />
          <mxCell style="shape=attackgraphs.node;fillColor=#DAE8FC;verticalAlign=top;align=left;spacingLeft=2;" parent="1" vertex="1">
            <mxGeometry x="1672" y="920" width="124" height="62" as="geometry" />
          </mxCell>
        </object>
        <object label="Resilienz" Resources="2" Knowledge="3" Location="0" id="GgrNti0cYKfVZOgplMKi-18">
          <ag_attributes />
          <ag_computed_attributes />
          <mxCell style="shape=attackgraphs.node;fillColor=#DAE8FC;verticalAlign=top;" parent="1" vertex="1">
            <mxGeometry x="551.5" y="1040" width="150" height="75" as="geometry" />
          </mxCell>
        </object>
        <object label="Zugriffsschutz" Resources="1" Knowledge="1" Location="0" id="GgrNti0cYKfVZOgplMKi-20">
          <ag_attributes />
          <ag_computed_attributes />
          <mxCell style="shape=attackgraphs.node;fillColor=#DAE8FC;verticalAlign=top;" parent="1" vertex="1">
            <mxGeometry x="800" y="920" width="150" height="60" as="geometry" />
          </mxCell>
        </object>
        <object label="Mitarbeiterschulung" Resources="1" Knowledge="1" Location="0" id="GgrNti0cYKfVZOgplMKi-22">
          <ag_attributes />
          <ag_computed_attributes />
          <mxCell style="shape=attackgraphs.node;fillColor=#DAE8FC;verticalAlign=top;" parent="1" vertex="1">
            <mxGeometry x="435" y="920" width="150" height="60" as="geometry" />
          </mxCell>
        </object>
        <object label="Multi-Faktor-Authentifizierung&#xa;Code Signing" Resources="1" Knowledge="2" Location="0" id="GgrNti0cYKfVZOgplMKi-29">
          <ag_attributes />
          <ag_computed_attributes />
          <mxCell style="shape=attackgraphs.node;fillColor=#DAE8FC;verticalAlign=top;" parent="1" vertex="1">
            <mxGeometry x="1165" y="920" width="160" height="60" as="geometry" />
          </mxCell>
        </object>
        <object label="Redundanz&#xa;Plausibilitätsprüfung" Resources="3" Knowledge="2" Location="0" id="GgrNti0cYKfVZOgplMKi-34">
          <ag_attributes />
          <ag_computed_attributes />
          <mxCell style="shape=attackgraphs.node;fillColor=#DAE8FC;verticalAlign=top;" parent="1" vertex="1">
            <mxGeometry x="820" y="1040" width="214" height="85" as="geometry" />
          </mxCell>
        </object>
        <object id="w9PTzOwBD10Lf9njyfX9-1">
          <ag_attributes />
          <ag_computed_attributes />
          <mxCell style="edgeStyle=none;rounded=0;orthogonalLoop=1;jettySize=auto;html=1;strokeWidth=2;startArrow=diamondThin;startFill=1;endArrow=none;endFill=0;strokeColor=#000000;" parent="1" source="-4xTDCNd8uaIH-OiAP7f-80" target="GgrNti0cYKfVZOgplMKi-9" edge="1">
            <mxGeometry relative="1" as="geometry" />
          </mxCell>
        </object>
        <object id="w9PTzOwBD10Lf9njyfX9-2">
          <ag_attributes />
          <ag_computed_attributes />
          <mxCell style="edgeStyle=none;rounded=0;orthogonalLoop=1;jettySize=auto;html=1;strokeWidth=2;startArrow=diamondThin;startFill=1;endArrow=none;endFill=0;strokeColor=#000000;" parent="1" source="-4xTDCNd8uaIH-OiAP7f-80" target="GgrNti0cYKfVZOgplMKi-8" edge="1">
            <mxGeometry relative="1" as="geometry" />
          </mxCell>
        </object>
        <object label="Schutz vor Schadcode" Resources="4" Knowledge="2" Location="0" id="w9PTzOwBD10Lf9njyfX9-3">
          <ag_attributes />
          <ag_computed_attributes />
          <mxCell style="shape=attackgraphs.node;fillColor=#DAE8FC;verticalAlign=top;" parent="1" vertex="1">
            <mxGeometry x="630" y="920" width="150" height="60" as="geometry" />
          </mxCell>
        </object>
        <object id="w9PTzOwBD10Lf9njyfX9-4">
          <ag_attributes />
          <ag_computed_attributes />
          <mxCell style="edgeStyle=none;rounded=0;orthogonalLoop=1;jettySize=auto;html=1;strokeWidth=2;startArrow=diamondThin;startFill=1;endArrow=none;endFill=0;strokeColor=#000000;" parent="1" source="-4xTDCNd8uaIH-OiAP7f-80" target="w9PTzOwBD10Lf9njyfX9-3" edge="1">
            <mxGeometry relative="1" as="geometry" />
          </mxCell>
        </object>
        <object id="w9PTzOwBD10Lf9njyfX9-5">
          <ag_attributes />
          <ag_computed_attributes />
          <mxCell style="edgeStyle=none;rounded=0;orthogonalLoop=1;jettySize=auto;html=1;strokeWidth=2;startArrow=diamondThin;startFill=1;endArrow=none;endFill=0;strokeColor=#000000;" parent="1" source="-4xTDCNd8uaIH-OiAP7f-79" target="w9PTzOwBD10Lf9njyfX9-3" edge="1">
            <mxGeometry relative="1" as="geometry" />
          </mxCell>
        </object>
      </root>
    </mxGraphModel>
  </diagram>
</mxfile>
